<?xml version="1.0" standalone="no"?>
<!DOCTYPE svg PUBLIC "-//W3C//DTD SVG 20010904//EN"
 "http://www.w3.org/TR/2001/REC-SVG-20010904/DTD/svg10.dtd">
<svg version="1.0" xmlns="http://www.w3.org/2000/svg"
 width="198.000000pt" height="116.000000pt" viewBox="0 0 198.000000 116.000000"
 preserveAspectRatio="xMidYMid meet">

<g transform="translate(0.000000,116.000000) scale(0.100000,-0.100000)"
fill="#000000" stroke="none">
<path d="M880 1144 c-35 -7 -101 -31 -145 -53 -78 -38 -200 -127 -200 -147 0
-12 478 -843 485 -844 3 0 115 190 249 422 l244 423 -54 48 c-68 60 -213 133
-304 152 -86 18 -190 18 -275 -1z"/>
<path d="M522 833 c-21 -31 -504 -799 -517 -823 -5 -10 -5 -12 3 -5 6 6 128
196 271 424 l260 413 23 -38 c13 -22 84 -145 159 -274 l136 -235 -141 -3 c-78
-1 -148 -6 -156 -10 -8 -4 59 -9 149 -12 l165 -5 70 -122 c39 -68 73 -123 76
-123 3 0 37 55 77 123 l71 122 176 3 c106 1 176 6 176 12 0 6 -66 10 -169 10
l-169 0 156 270 155 270 17 -27 c9 -16 115 -199 235 -408 243 -422 224 -390
229 -384 2 2 -100 182 -226 399 -126 217 -235 405 -242 418 -11 22 -27 -3
-246 -382 -129 -223 -237 -406 -240 -406 -3 0 -33 49 -67 108 -33 59 -140 243
-236 410 l-175 303 -20 -28z"/>
</g>
</svg>
